<mxfile host="app.diagrams.net" agent="Mozilla/5.0 (Windows NT 10.0; Win64; x64; rv:139.0) Gecko/20100101 Firefox/139.0" version="27.1.6">
  <diagram name="Page-1" id="vU9HTojW4jQtS4dqMbMy">
    <mxGraphModel dx="1833" dy="537" grid="1" gridSize="7" guides="1" tooltips="1" connect="1" arrows="1" fold="1" page="1" pageScale="1" pageWidth="850" pageHeight="1100" math="0" shadow="0">
      <root>
        <mxCell id="0" />
        <mxCell id="1" parent="0" />
        <mxCell id="f81mQaMLdUs0YO8MTmUS-1" value="" style="rounded=0;whiteSpace=wrap;html=1;fillColor=none;dashed=1;dashPattern=8 8;strokeColor=light-dark(#000000,#676767);" vertex="1" parent="1">
          <mxGeometry x="-7" y="196" width="127" height="520" as="geometry" />
        </mxCell>
        <mxCell id="f81mQaMLdUs0YO8MTmUS-3" value="&lt;div&gt;SOURCES&lt;/div&gt;" style="rounded=0;whiteSpace=wrap;html=1;fontSize=20;fillColor=default;strokeColor=none;direction=south;" vertex="1" parent="1">
          <mxGeometry y="184" width="112" height="36" as="geometry" />
        </mxCell>
        <mxCell id="f81mQaMLdUs0YO8MTmUS-6" value="" style="rounded=0;whiteSpace=wrap;html=1;fillColor=none;dashed=1;dashPattern=8 8;strokeColor=light-dark(#000000,#676767);" vertex="1" parent="1">
          <mxGeometry x="160" y="200" width="520" height="520" as="geometry" />
        </mxCell>
        <mxCell id="f81mQaMLdUs0YO8MTmUS-7" value="" style="rounded=0;whiteSpace=wrap;html=1;fillColor=none;dashed=1;dashPattern=8 8;strokeColor=light-dark(#000000,#676767);" vertex="1" parent="1">
          <mxGeometry x="720" y="200" width="120" height="520" as="geometry" />
        </mxCell>
        <mxCell id="f81mQaMLdUs0YO8MTmUS-8" value="&lt;div&gt;Data Warehouse&lt;/div&gt;" style="rounded=0;whiteSpace=wrap;html=1;fontSize=24;fillColor=default;strokeColor=none;" vertex="1" parent="1">
          <mxGeometry x="315" y="180" width="210" height="40" as="geometry" />
        </mxCell>
        <mxCell id="f81mQaMLdUs0YO8MTmUS-9" value="&lt;div&gt;Consume&lt;/div&gt;" style="rounded=0;whiteSpace=wrap;html=1;fontSize=24;fillColor=default;strokeColor=none;" vertex="1" parent="1">
          <mxGeometry x="740" y="180" width="70" height="40" as="geometry" />
        </mxCell>
        <mxCell id="f81mQaMLdUs0YO8MTmUS-16" value="Bronze Layer" style="rounded=0;whiteSpace=wrap;html=1;fillColor=light-dark(#CD7F32,#CD7F32);strokeColor=#d79b00;" vertex="1" parent="1">
          <mxGeometry x="200" y="240" width="120" height="30" as="geometry" />
        </mxCell>
        <mxCell id="f81mQaMLdUs0YO8MTmUS-17" value="Bronze" style="rounded=0;whiteSpace=wrap;html=1;fillColor=light-dark(#C0C0C0,#C0C0C0);strokeColor=light-dark(#C0C0C0,#C0C0C0);" vertex="1" parent="1">
          <mxGeometry x="360" y="240" width="120" height="30" as="geometry" />
        </mxCell>
        <mxCell id="f81mQaMLdUs0YO8MTmUS-18" value="Bronze" style="rounded=0;whiteSpace=wrap;html=1;fillColor=light-dark(#FFD700,#FFD700);strokeColor=light-dark(#FFD700,#FFD700);" vertex="1" parent="1">
          <mxGeometry x="520" y="240" width="120" height="30" as="geometry" />
        </mxCell>
        <mxCell id="f81mQaMLdUs0YO8MTmUS-20" value="" style="rounded=0;whiteSpace=wrap;html=1;fillColor=none;strokeColor=#d79b00;" vertex="1" parent="1">
          <mxGeometry x="200" y="280" width="120" height="400" as="geometry" />
        </mxCell>
        <mxCell id="f81mQaMLdUs0YO8MTmUS-21" value="" style="rounded=0;whiteSpace=wrap;html=1;fillColor=none;strokeColor=light-dark(#C0C0C0,#C0C0C0);spacingTop=0;" vertex="1" parent="1">
          <mxGeometry x="360" y="280" width="120" height="400" as="geometry" />
        </mxCell>
        <mxCell id="f81mQaMLdUs0YO8MTmUS-22" value="" style="rounded=0;whiteSpace=wrap;html=1;fillColor=none;strokeColor=light-dark(#FFD700,#FFD700);" vertex="1" parent="1">
          <mxGeometry x="520" y="280" width="120" height="400" as="geometry" />
        </mxCell>
        <mxCell id="f81mQaMLdUs0YO8MTmUS-26" value="" style="image;aspect=fixed;html=1;points=[];align=center;fontSize=12;image=img/lib/azure2/general/Folder_Blank.svg;" vertex="1" parent="1">
          <mxGeometry x="38.75" y="263" width="38.2" height="31" as="geometry" />
        </mxCell>
        <mxCell id="f81mQaMLdUs0YO8MTmUS-28" value="" style="image;aspect=fixed;html=1;points=[];align=center;fontSize=12;image=img/lib/azure2/general/File.svg;" vertex="1" parent="1">
          <mxGeometry x="60.88" y="280" width="17.05" height="21" as="geometry" />
        </mxCell>
        <mxCell id="f81mQaMLdUs0YO8MTmUS-32" value="" style="html=1;verticalLabelPosition=bottom;align=center;labelBackgroundColor=#ffffff;verticalAlign=top;strokeWidth=2;strokeColor=#0080F0;shadow=0;dashed=0;shape=mxgraph.ios7.icons.data;" vertex="1" parent="1">
          <mxGeometry x="567" y="324" width="42" height="49" as="geometry" />
        </mxCell>
        <mxCell id="f81mQaMLdUs0YO8MTmUS-35" value="" style="shape=singleArrow;whiteSpace=wrap;html=1;fontColor=light-dark(#000000,#99CCFF);fillColor=light-dark(#FFFFFF,#66B2FF);" vertex="1" parent="1">
          <mxGeometry x="95.38" y="371" width="91" height="51.9" as="geometry" />
        </mxCell>
        <mxCell id="f81mQaMLdUs0YO8MTmUS-36" value="" style="shape=singleArrow;whiteSpace=wrap;html=1;fillColor=light-dark(#FFFFFF,#66B2FF);" vertex="1" parent="1">
          <mxGeometry x="320" y="382.65000000000003" width="35" height="28.59" as="geometry" />
        </mxCell>
        <mxCell id="f81mQaMLdUs0YO8MTmUS-38" value="" style="shape=singleArrow;whiteSpace=wrap;html=1;fillColor=light-dark(#FFFFFF,#66B2FF);" vertex="1" parent="1">
          <mxGeometry x="644" y="371" width="98" height="51.05" as="geometry" />
        </mxCell>
        <mxCell id="f81mQaMLdUs0YO8MTmUS-39" value="" style="html=1;verticalLabelPosition=bottom;align=center;labelBackgroundColor=#ffffff;verticalAlign=top;strokeWidth=2;strokeColor=#0080F0;shadow=0;dashed=0;shape=mxgraph.ios7.icons.data;" vertex="1" parent="1">
          <mxGeometry x="399" y="322" width="42" height="49" as="geometry" />
        </mxCell>
        <mxCell id="f81mQaMLdUs0YO8MTmUS-40" value="" style="html=1;verticalLabelPosition=bottom;align=center;labelBackgroundColor=#ffffff;verticalAlign=top;strokeWidth=2;strokeColor=#0080F0;shadow=0;dashed=0;shape=mxgraph.ios7.icons.data;" vertex="1" parent="1">
          <mxGeometry x="239" y="324" width="42" height="49" as="geometry" />
        </mxCell>
        <mxCell id="f81mQaMLdUs0YO8MTmUS-41" value="" style="image;aspect=fixed;html=1;points=[];align=center;fontSize=12;image=img/lib/azure2/general/Folder_Blank.svg;" vertex="1" parent="1">
          <mxGeometry x="35" y="346.66" width="38.61" height="31.34" as="geometry" />
        </mxCell>
        <mxCell id="f81mQaMLdUs0YO8MTmUS-42" value="" style="image;aspect=fixed;html=1;points=[];align=center;fontSize=12;image=img/lib/azure2/general/File.svg;" vertex="1" parent="1">
          <mxGeometry x="60.88" y="361.65" width="17.05" height="21" as="geometry" />
        </mxCell>
        <mxCell id="f81mQaMLdUs0YO8MTmUS-44" value="" style="line;strokeWidth=2;html=1;" vertex="1" parent="1">
          <mxGeometry x="211" y="382.65" width="98" height="84" as="geometry" />
        </mxCell>
        <mxCell id="f81mQaMLdUs0YO8MTmUS-45" value="" style="line;strokeWidth=2;html=1;" vertex="1" parent="1">
          <mxGeometry x="376" y="382.65" width="98" height="84" as="geometry" />
        </mxCell>
        <mxCell id="f81mQaMLdUs0YO8MTmUS-46" value="" style="line;strokeWidth=2;html=1;" vertex="1" parent="1">
          <mxGeometry x="531" y="382.65" width="98" height="84" as="geometry" />
        </mxCell>
        <mxCell id="f81mQaMLdUs0YO8MTmUS-47" value="" style="line;strokeWidth=2;html=1;" vertex="1" parent="1">
          <mxGeometry x="8.85" y="438" width="98" height="84" as="geometry" />
        </mxCell>
        <mxCell id="f81mQaMLdUs0YO8MTmUS-49" value="&lt;b&gt;Object Type&lt;/b&gt;: CSV files" style="text;html=1;align=center;verticalAlign=middle;whiteSpace=wrap;rounded=0;fontSize=10;" vertex="1" parent="1">
          <mxGeometry x="4" y="495" width="116" height="30" as="geometry" />
        </mxCell>
        <mxCell id="f81mQaMLdUs0YO8MTmUS-51" value="&lt;div&gt;&lt;b&gt;Object Type&lt;/b&gt;: Tables&lt;/div&gt;&lt;div&gt;&lt;br&gt;&lt;/div&gt;&lt;div&gt;&lt;b&gt;Load:&lt;/b&gt;&lt;/div&gt;&lt;div&gt;&lt;ul&gt;&lt;li&gt;Batch Processing&lt;/li&gt;&lt;li&gt;Full Load&lt;/li&gt;&lt;li&gt;Truncate &amp;amp; Insert&lt;/li&gt;&lt;/ul&gt;&lt;div align=&quot;left&quot;&gt;No &lt;b&gt;Transformation&lt;/b&gt;&lt;/div&gt;&lt;div align=&quot;left&quot;&gt;&lt;br&gt;&lt;/div&gt;&lt;div align=&quot;left&quot;&gt;&lt;b&gt;Data Model:&amp;nbsp;&lt;/b&gt;None&lt;/div&gt;&lt;/div&gt;&lt;div&gt;&lt;br&gt;&lt;/div&gt;" style="text;html=1;align=left;verticalAlign=top;whiteSpace=wrap;rounded=0;fontSize=10;" vertex="1" parent="1">
          <mxGeometry x="211" y="431" width="116" height="173" as="geometry" />
        </mxCell>
        <mxCell id="f81mQaMLdUs0YO8MTmUS-54" value="&lt;b&gt;Interface&lt;/b&gt;: Files in folders" style="text;html=1;align=center;verticalAlign=middle;whiteSpace=wrap;rounded=0;fontSize=10;" vertex="1" parent="1">
          <mxGeometry x="4" y="525" width="116" height="30" as="geometry" />
        </mxCell>
        <mxCell id="f81mQaMLdUs0YO8MTmUS-57" value="CRM" style="text;html=1;align=center;verticalAlign=middle;whiteSpace=wrap;rounded=0;" vertex="1" parent="1">
          <mxGeometry x="26" y="294" width="60" height="30" as="geometry" />
        </mxCell>
        <mxCell id="f81mQaMLdUs0YO8MTmUS-58" value="ERP" style="text;html=1;align=center;verticalAlign=middle;whiteSpace=wrap;rounded=0;" vertex="1" parent="1">
          <mxGeometry x="24.3" y="381.24" width="60" height="30" as="geometry" />
        </mxCell>
        <mxCell id="f81mQaMLdUs0YO8MTmUS-59" value="" style="image;aspect=fixed;html=1;points=[];align=center;fontSize=12;image=img/lib/azure2/power_platform/PowerBI.svg;" vertex="1" parent="1">
          <mxGeometry x="742" y="257.5" width="31.5" height="42" as="geometry" />
        </mxCell>
        <mxCell id="f81mQaMLdUs0YO8MTmUS-60" value="" style="outlineConnect=0;dashed=0;verticalLabelPosition=bottom;verticalAlign=top;align=center;html=1;shape=mxgraph.aws3.machine_learning;fillColor=#2E73B8;gradientColor=none;" vertex="1" parent="1">
          <mxGeometry x="740" y="429.5" width="54.25" height="61" as="geometry" />
        </mxCell>
        <mxCell id="f81mQaMLdUs0YO8MTmUS-61" value="Machine Learning" style="text;html=1;align=center;verticalAlign=middle;whiteSpace=wrap;rounded=0;" vertex="1" parent="1">
          <mxGeometry x="730" y="495" width="82" height="23" as="geometry" />
        </mxCell>
        <mxCell id="f81mQaMLdUs0YO8MTmUS-62" value="Power BI" style="text;html=1;align=center;verticalAlign=middle;whiteSpace=wrap;rounded=0;" vertex="1" parent="1">
          <mxGeometry x="734.25" y="299.5" width="60" height="30" as="geometry" />
        </mxCell>
        <mxCell id="f81mQaMLdUs0YO8MTmUS-63" value="" style="shape=singleArrow;whiteSpace=wrap;html=1;fillColor=light-dark(#FFFFFF,#66B2FF);" vertex="1" parent="1">
          <mxGeometry x="480" y="382.65000000000003" width="35" height="28.59" as="geometry" />
        </mxCell>
        <mxCell id="f81mQaMLdUs0YO8MTmUS-64" value="" style="sketch=0;html=1;aspect=fixed;strokeColor=none;shadow=0;fillColor=#3B8DF1;verticalAlign=top;labelPosition=center;verticalLabelPosition=bottom;shape=mxgraph.gcp2.big_query" vertex="1" parent="1">
          <mxGeometry x="784" y="339.5" width="38.12" height="38.5" as="geometry" />
        </mxCell>
        <mxCell id="f81mQaMLdUs0YO8MTmUS-65" value="&lt;div&gt;&lt;font&gt;&lt;b&gt;Object Type&lt;/b&gt;: Tables&lt;/font&gt;&lt;/div&gt;&lt;div&gt;&lt;font&gt;&lt;br&gt;&lt;/font&gt;&lt;/div&gt;&lt;div&gt;&lt;font&gt;&lt;b&gt;Load:&lt;/b&gt;&lt;/font&gt;&lt;/div&gt;&lt;div&gt;&lt;ul&gt;&lt;li&gt;&lt;font&gt;Batch Processing&lt;/font&gt;&lt;/li&gt;&lt;li&gt;&lt;font&gt;Full Load&lt;/font&gt;&lt;/li&gt;&lt;li&gt;&lt;font&gt;Truncate &amp;amp; Insert&lt;/font&gt;&lt;/li&gt;&lt;/ul&gt;&lt;div align=&quot;left&quot;&gt;&lt;font&gt;&lt;b&gt;Transformation:&lt;/b&gt;&lt;/font&gt;&lt;/div&gt;&lt;div align=&quot;left&quot;&gt;&lt;ul&gt;&lt;li&gt;&lt;font&gt;Data Cleaning&lt;/font&gt;&lt;/li&gt;&lt;li&gt;&lt;font&gt;Data Standization&lt;/font&gt;&lt;/li&gt;&lt;li&gt;&lt;font&gt;Data Normalization&lt;/font&gt;&lt;/li&gt;&lt;li&gt;&lt;font&gt;Derived Columns&lt;/font&gt;&lt;/li&gt;&lt;li&gt;&lt;font&gt;Data Enrichment&lt;/font&gt;&lt;/li&gt;&lt;/ul&gt;&lt;/div&gt;&lt;div align=&quot;left&quot;&gt;&lt;font&gt;&lt;br&gt;&lt;/font&gt;&lt;/div&gt;&lt;div align=&quot;left&quot;&gt;&lt;font&gt;&lt;b&gt;Data Model:&amp;nbsp;&lt;/b&gt;None&lt;/font&gt;&lt;/div&gt;&lt;/div&gt;&lt;div&gt;&lt;br&gt;&lt;/div&gt;" style="text;html=1;align=left;verticalAlign=top;whiteSpace=wrap;rounded=0;fontSize=9;" vertex="1" parent="1">
          <mxGeometry x="364" y="429.5" width="116" height="242.5" as="geometry" />
        </mxCell>
        <mxCell id="f81mQaMLdUs0YO8MTmUS-66" value="&lt;div&gt;&lt;font&gt;&lt;b&gt;Object Type&lt;/b&gt;: Views&lt;/font&gt;&lt;/div&gt;&lt;div&gt;&lt;font&gt;&lt;br&gt;&lt;/font&gt;&lt;/div&gt;&lt;div&gt;&lt;font&gt;&lt;b&gt;No Load:&lt;/b&gt;&lt;/font&gt;&lt;/div&gt;&lt;div&gt;&lt;font&gt;&lt;b&gt;&lt;br&gt;&lt;/b&gt;&lt;/font&gt;&lt;/div&gt;&lt;div&gt;&lt;div align=&quot;left&quot;&gt;&lt;font&gt;&lt;b&gt;Transformation:&lt;/b&gt;&lt;/font&gt;&lt;/div&gt;&lt;div align=&quot;left&quot;&gt;&lt;ul&gt;&lt;li&gt;Data Integration&lt;/li&gt;&lt;li&gt;Aggregations&lt;/li&gt;&lt;li&gt;Business Logic&#39;s&lt;/li&gt;&lt;/ul&gt;&lt;/div&gt;&lt;div align=&quot;left&quot;&gt;&lt;font&gt;&lt;br&gt;&lt;/font&gt;&lt;/div&gt;&lt;div align=&quot;left&quot;&gt;&lt;font&gt;&lt;b&gt;Data Model:&lt;/b&gt;&lt;/font&gt;&lt;/div&gt;&lt;div align=&quot;left&quot;&gt;&lt;ul&gt;&lt;li&gt;Star Schema&lt;/li&gt;&lt;li&gt;Flat Table&lt;/li&gt;&lt;li&gt;Aggregated Table&lt;/li&gt;&lt;/ul&gt;&lt;/div&gt;&lt;/div&gt;&lt;div&gt;&lt;br&gt;&lt;/div&gt;" style="text;html=1;align=left;verticalAlign=top;whiteSpace=wrap;rounded=0;fontSize=9;" vertex="1" parent="1">
          <mxGeometry x="525" y="429" width="116" height="242.5" as="geometry" />
        </mxCell>
        <mxCell id="f81mQaMLdUs0YO8MTmUS-67" value="SQL queries" style="text;html=1;align=center;verticalAlign=middle;whiteSpace=wrap;rounded=0;" vertex="1" parent="1">
          <mxGeometry x="773.06" y="371" width="60" height="30" as="geometry" />
        </mxCell>
        <mxCell id="f81mQaMLdUs0YO8MTmUS-69" value="Raw Data" style="text;html=1;align=center;verticalAlign=middle;whiteSpace=wrap;rounded=0;" vertex="1" parent="1">
          <mxGeometry x="230" y="373" width="60" height="30" as="geometry" />
        </mxCell>
        <mxCell id="f81mQaMLdUs0YO8MTmUS-70" value="&lt;div&gt;Cleaned and Standardized Data&lt;/div&gt;" style="text;html=1;align=left;verticalAlign=middle;whiteSpace=wrap;rounded=0;" vertex="1" parent="1">
          <mxGeometry x="370" y="378" width="111" height="30" as="geometry" />
        </mxCell>
        <mxCell id="f81mQaMLdUs0YO8MTmUS-71" value="Business-Ready Data" style="text;html=1;align=center;verticalAlign=middle;whiteSpace=wrap;rounded=0;" vertex="1" parent="1">
          <mxGeometry x="536.5" y="378" width="93" height="30" as="geometry" />
        </mxCell>
      </root>
    </mxGraphModel>
  </diagram>
</mxfile>
